<?xml version="1.0" encoding="UTF-8"?>
<svg width="901px" height="945px" viewBox="0 0 901 945" version="1.1" xmlns="http://www.w3.org/2000/svg" xmlns:xlink="http://www.w3.org/1999/xlink">
    <!-- Generator: Sketch 54.1 (76490) - https://sketchapp.com -->
    <title>Group 9</title>
    <desc>Created with Sketch.</desc>
    <g id="Page-1" stroke="none" stroke-width="1" fill="none" fill-rule="evenodd">
        <g id="Group-6" transform="translate(-150.000000, -128.000000)" fill="#FFFFFF" fill-rule="nonzero">
            <g id="Group-7" transform="translate(150.000000, 128.000000)">
                <g id="Group-9" transform="translate(0.854127, 0.976967)">
                    <path d="M898.945445,70.4713274 C896.996031,32.9732773 868.563424,3.15441789 832.813045,1.10786289 C760.675961,-3.02580946 619.516634,0.99539455 484.537774,74.2233448 C415.728227,111.555458 342.954814,174.84932 284.878467,247.876302 C284.163037,248.776049 283.466944,249.681327 282.756788,250.582917 L150.956051,261.261878 C129.261137,263.020809 109.937511,274.947984 97.9386867,293.982789 L8.0195767,436.636891 C-1.08061551,451.073401 -2.5272947,469.140241 4.14711708,484.965089 C10.8232867,500.791781 24.5412507,511.821053 40.8449561,514.470512 L151.887692,532.509696 C151.4957,534.773813 151.10195,537.036086 150.741598,539.300202 C147.04492,562.494492 154.37148,586.341467 170.342959,603.091875 L325.016344,765.328374 C338.257941,779.217292 356.150708,786.874357 374.484686,786.874357 C378.260466,786.874357 382.05734,786.548015 385.836635,785.886111 C387.995228,785.508144 390.152064,785.095145 392.310657,784.68399 L409.509088,901.156938 C412.035064,918.257657 422.550295,932.648073 437.635836,939.648766 C443.912983,942.56188 450.555754,944 457.168642,944 C466.455163,943.998156 475.676644,941.162479 483.71336,935.588843 L619.718782,841.272158 C637.86819,828.684923 649.237717,808.416653 650.911154,785.663018 L661.092401,647.420994 C661.951971,646.676121 662.816814,645.945999 663.674626,645.195595 C733.299798,584.280162 793.645481,507.949192 829.235898,435.774019 C899.054429,294.191132 902.881186,146.129331 898.945445,70.4713274 Z M590.635784,795.13064 L460.538368,885.350528 L443.775873,771.840475 C498.76023,754.883568 553.152203,727.72523 604.97074,691.342645 L598.338516,781.400284 C597.92543,787.018169 595.116447,792.023932 590.635784,795.13064 L590.635784,795.13064 Z M362.304807,726.217048 L207.629665,563.980549 C203.683377,559.839502 201.858768,554.022492 202.753495,548.419356 C207.351931,519.577681 214.497436,492.1225 223.342745,466.25847 L455.423135,709.684203 C425.80752,720.811193 399.280381,727.448669 377.14074,731.331592 C371.78996,732.264526 366.251095,730.356252 362.304807,726.217048 Z M155.018355,316.410082 L240.876919,309.453639 C206.188259,363.805346 180.29569,420.856293 164.129094,478.528581 L55.9111619,460.94849 L141.927929,324.489365 C144.8916,319.78782 149.66406,316.843362 155.018355,316.410082 L155.018355,316.410082 Z M629.900029,602.717595 C587.302973,639.985177 545.953964,666.940703 507.841086,686.445663 L245.538636,411.320453 C269.898394,359.135144 299.628266,315.67996 325.373179,283.307516 C379.118278,215.725107 445.962591,157.424102 508.767453,123.351727 C632.647489,56.1417549 763.16678,52.5224869 829.942539,56.3353479 C838.780817,56.8405336 845.810307,64.2136628 846.291947,73.4858476 C849.932375,143.525966 846.474759,280.423901 782.397242,410.361706 C749.914636,476.234965 694.330866,546.345145 629.900029,602.717595 Z" id="Shape"></path>
                    <path d="M618.000887,435.999999 C652.053568,435.996291 686.120437,422.441602 712.045662,395.334078 C737.167539,369.068391 751,334.145133 751,297.000463 C751,259.855794 737.165766,224.932536 712.045662,198.666849 C660.18812,144.442529 575.810107,144.446238 523.956112,198.666849 C498.834234,224.932536 485,259.855794 485,297.000463 C485,334.145133 498.836008,369.068391 523.956112,395.334078 C549.886656,422.447164 583.935791,436.003708 618.000887,435.999999 Z M561.571539,237.999553 C577.127738,221.732072 597.562539,213.599258 617.99734,213.599258 C638.433914,213.599258 658.868716,221.732072 674.424914,237.999553 C689.496977,253.758965 697.796453,274.712178 697.796453,296.998609 C697.796453,319.28504 689.496977,340.240107 674.424914,355.999519 C643.312517,388.532627 592.683936,388.530773 561.569766,355.999519 C546.497703,340.240107 538.196453,319.286894 538.196453,297.000463 C538.196453,274.714032 546.499477,253.758965 561.571539,237.999553 Z" id="Shape"></path>
                    <path d="M26.590817,777 C33.3965203,777 40.2022236,774.293472 45.3929241,768.876718 L132.21129,678.339285 C142.596237,667.509475 142.596237,649.952167 132.21129,639.122357 C121.828116,628.292548 104.99025,628.292548 94.6053031,639.122357 L7.78870992,729.659791 C-2.59623664,740.489601 -2.59623664,758.046908 7.78870992,768.876718 C12.9794104,774.291623 19.7851137,777 26.590817,777 Z" id="Path"></path>
                    <path d="M211.25035,724.068318 C200.918952,713.310561 184.165049,713.310561 173.831888,724.068318 L7.74987088,896.97659 C-2.58329029,907.734347 -2.58329029,925.174843 7.74987088,935.9326 C12.9164515,941.311479 19.6864536,944 26.4582197,944 C33.2299858,944 40.0017519,941.311479 45.1665685,935.930764 L211.248586,763.024329 C221.583511,752.266571 221.583511,734.826076 211.25035,724.068318 Z" id="Path"></path>
                    <path d="M252.607076,806.122357 L165.78871,896.659791 C155.403763,907.489601 155.403763,925.046908 165.78871,935.876718 C170.981183,941.291623 177.786886,944 184.590817,944 C191.394748,944 198.202224,941.293472 203.392924,935.876718 L290.21129,845.339285 C300.596237,834.509475 300.596237,816.952167 290.21129,806.122357 C279.828116,795.292548 262.99025,795.292548 252.607076,806.122357 Z" id="Path"></path>
                </g>
            </g>
        </g>
    </g>
</svg>